<svg width="25" height="25" viewBox="0 0 25 25" fill="none" xmlns="http://www.w3.org/2000/svg">
<g clip-path="url(#clip0_6_94)">
<path d="M17.1875 10.4169H7.81249" stroke="white" stroke-miterlimit="10"/>
<path d="M7.81249 18.2294H17.1875" stroke="white" stroke-miterlimit="10"/>
<path d="M17.1875 18.2293C17.4637 18.2293 17.7287 18.3391 17.924 18.5344C18.1194 18.7298 18.2291 18.9947 18.2291 19.271V22.9168C18.2291 23.3312 18.0645 23.7287 17.7715 24.0217C17.4785 24.3147 17.081 24.4793 16.6666 24.4793H8.33331C7.91891 24.4793 7.52148 24.3147 7.22846 24.0217C6.93543 23.7287 6.77081 23.3312 6.77081 22.9168V19.271C6.77081 18.9947 6.88056 18.7298 7.07591 18.5344C7.27126 18.3391 7.53621 18.2293 7.81248 18.2293V10.4168C7.53621 10.4168 7.27126 10.3071 7.07591 10.1117C6.88056 9.91639 6.77081 9.65144 6.77081 9.37517V7.29184C6.77081 6.46304 7.10005 5.66818 7.6861 5.08213C8.27216 4.49608 9.06701 4.16684 9.89581 4.16684H15.1041C15.9329 4.16684 16.7278 4.49608 17.3139 5.08213C17.8999 5.66818 18.2291 6.46304 18.2291 7.29184V9.37517C18.2291 9.65144 18.1194 9.91639 17.924 10.1117C17.7287 10.3071 17.4637 10.4168 17.1875 10.4168V18.2293Z" stroke="white" stroke-miterlimit="10"/>
<path d="M15.1041 4.16689V1.56272C15.1041 1.28646 14.9943 1.0215 14.799 0.826154C14.6036 0.630804 14.3387 0.521057 14.0624 0.521057H10.9374C10.6612 0.521057 10.3962 0.630804 10.2009 0.826154C10.0055 1.0215 9.89576 1.28646 9.89576 1.56272V4.16689" stroke="white" stroke-miterlimit="10"/>
</g>
<defs>
<clipPath id="clip0_6_94">
<rect width="25" height="25" fill="white"/>
</clipPath>
</defs>
</svg>
